<?xml version="1.0" encoding="UTF-8"?>
<!DOCTYPE svg PUBLIC "-//W3C//DTD SVG 1.1//EN" "http://www.w3.org/Graphics/SVG/1.1/DTD/svg11.dtd">
<!-- Creator: CorelDRAW X8 -->
<svg xmlns="http://www.w3.org/2000/svg" xml:space="preserve" width="90mm" height="40mm" version="1.1" style="shape-rendering:geometricPrecision; text-rendering:geometricPrecision; image-rendering:optimizeQuality; fill-rule:evenodd; clip-rule:evenodd"
viewBox="0 0 9000 4000"
 xmlns:xlink="http://www.w3.org/1999/xlink">
 <defs>
  <style type="text/css">
   <![CDATA[
    .fil0 {fill:none}
    .fil2 {fill:#FEFEFE}
    .fil6 {fill:#A9ABAE;fill-rule:nonzero}
    .fil7 {fill:#004AE3;fill-rule:nonzero}
    .fil3 {fill:url(#id2)}
    .fil4 {fill:url(#id3)}
    .fil1 {fill:url(#id4)}
    .fil5 {fill:url(#id5)}
   ]]>
  </style>
   <mask id="id0">
  <linearGradient id="id1" gradientUnits="userSpaceOnUse" x1="-2248.79" y1="5759.77" x2="3129.27" y2="853.174">
   <stop offset="0" style="stop-opacity:1; stop-color:white"/>
   <stop offset="0.231373" style="stop-opacity:0.501961; stop-color:white"/>
   <stop offset="1" style="stop-opacity:0; stop-color:white"/>
  </linearGradient>
    <rect style="fill:url(#id1)" x="555" y="34" width="3637" height="3308"/>
   </mask>
  <linearGradient id="id2" gradientUnits="userSpaceOnUse" x1="2186.36" y1="2058" x2="2024.1" y2="3047.63">
   <stop offset="0" style="stop-opacity:1; stop-color:#90C74A"/>
   <stop offset="1" style="stop-opacity:1; stop-color:#17B255"/>
  </linearGradient>
  <linearGradient id="id3" gradientUnits="userSpaceOnUse" x1="2186.36" y1="2058" x2="2024.1" y2="3047.63">
   <stop offset="0" style="stop-opacity:1; stop-color:#72BF4F"/>
   <stop offset="1" style="stop-opacity:1; stop-color:#00A859"/>
  </linearGradient>
  <linearGradient id="id4" gradientUnits="userSpaceOnUse" x1="2156.78" y1="2844.64" x2="652.31" y2="3449.65">
   <stop offset="0" style="stop-opacity:1; stop-color:#004AE3"/>
   <stop offset="1" style="stop-opacity:1; stop-color:#ED3237"/>
  </linearGradient>
  <linearGradient id="id5" gradientUnits="userSpaceOnUse" x1="2186.36" y1="2058" x2="1936.1" y2="3935.12">
   <stop offset="0" style="stop-opacity:1; stop-color:#24B354"/>
   <stop offset="1" style="stop-opacity:1; stop-color:#068A4F"/>
  </linearGradient>
 </defs>
 <g id="Layer_x0020_1">
  <metadata id="CorelCorpID_0Corel-Layer"/>
  <polygon class="fil0" points="0,0 9000,0 9000,4000 0,4000 "/>
  <path class="fil1" d="M2226 44c630,0 1190,297 1548,760l-2217 1386 -1279 -368c90,-997 927,-1778 1948,-1778zm1798 1183c102,237 158,499 158,773 0,1080 -876,1956 -1956,1956 -1081,0 -1957,-876 -1957,-1956 0,-9 1,-19 1,-28l1356 1481 0 0 0 0 2398 -2226z"/>
  <path class="fil2" style="mask:url(#id0)" d="M2226 44c630,0 1190,297 1548,760l-1472 921c-400,-608 -1146,-753 -1737,-760 346,-553 960,-921 1661,-921zm417 2465c229,415 609,669 1016,823 325,-349 523,-817 523,-1332 0,-274 -56,-536 -158,-773l-1381 1282z"/>
  <polygon class="fil3" points="1570,2279 4584,441 1626,3453 80,1765 "/>
  <polygon class="fil4" points="1622,2541 4584,441 1626,3453 80,1765 "/>
  <polygon class="fil5" points="1675,3065 4584,441 1626,3453 80,1765 "/>
  <path class="fil6" d="M4804 2716l0 74 -63 0 0 142c0,29 0,46 1,50 2,5 4,9 9,12 4,3 9,5 15,5 9,0 22,-3 38,-9l8 72c-22,9 -46,14 -74,14 -16,0 -31,-3 -45,-8 -13,-6 -23,-13 -29,-22 -6,-9 -11,-21 -13,-37 -2,-11 -3,-32 -3,-65l0 -154 -43 0 0 -74 43 0 0 -69 93 -55 0 124 63 0zm111 108l-84 -14c10,-35 26,-60 49,-77 23,-16 58,-24 103,-24 42,0 73,5 93,14 20,10 34,23 43,38 8,15 12,42 12,83l-1 108c0,31 1,54 4,68 3,15 9,31 17,47l-92 0c-3,-6 -6,-15 -9,-27 -2,-5 -3,-9 -4,-11 -15,16 -32,27 -50,35 -18,8 -37,12 -58,12 -36,0 -64,-10 -85,-29 -21,-20 -31,-45 -31,-75 0,-19 5,-37 14,-53 10,-15 23,-27 40,-35 17,-9 42,-16 74,-22 43,-8 73,-16 90,-23l0 -9c0,-18 -5,-31 -13,-39 -9,-7 -26,-11 -51,-11 -16,0 -29,3 -38,10 -10,6 -17,18 -23,34zm125 75c-12,4 -31,9 -57,15 -25,5 -42,11 -50,16 -12,8 -18,19 -18,32 0,14 4,25 14,34 10,10 22,14 37,14 17,0 33,-5 48,-16 11,-9 19,-19 22,-31 2,-8 4,-23 4,-45l0 -19zm126 69l94 -14c4,18 12,32 24,41 12,9 29,14 51,14 24,0 42,-4 54,-13 8,-6 12,-15 12,-25 0,-7 -2,-13 -7,-18 -4,-4 -15,-8 -31,-12 -74,-16 -122,-32 -142,-45 -28,-19 -42,-46 -42,-79 0,-31 12,-56 36,-77 24,-21 62,-31 112,-31 48,0 84,8 107,23 23,16 40,39 48,70l-87 16c-4,-13 -11,-24 -21,-31 -11,-8 -26,-11 -45,-11 -25,0 -42,3 -53,10 -7,5 -11,11 -11,19 0,6 3,12 9,17 9,6 38,15 87,26 50,11 85,25 104,41 20,17 29,40 29,69 0,32 -13,60 -40,83 -27,23 -66,35 -119,35 -48,0 -86,-10 -114,-29 -28,-19 -46,-45 -55,-79zm384 99l0 -484 92 0 0 257 109 -124 114 0 -120 128 129 223 -100 0 -89 -158 -43 46 0 112 -92 0zm537 -351l86 0 0 48c30,-37 67,-55 109,-55 22,0 42,4 58,14 17,9 30,23 41,42 15,-19 32,-33 50,-42 18,-10 37,-14 57,-14 26,0 47,5 65,15 18,11 31,26 40,47 7,14 10,39 10,72l0 224 -93 0 0 -200c0,-35 -3,-57 -10,-67 -8,-14 -21,-20 -39,-20 -13,0 -25,4 -37,12 -11,8 -20,19 -25,34 -5,16 -7,40 -7,73l0 168 -93 0 0 -192c0,-34 -2,-56 -5,-66 -3,-10 -8,-17 -15,-22 -7,-5 -17,-7 -28,-7 -15,0 -28,4 -39,11 -11,8 -20,19 -25,34 -5,14 -7,38 -7,72l0 170 -93 0 0 -351zm655 108l-84 -14c9,-35 26,-60 49,-77 23,-16 57,-24 103,-24 41,0 72,5 92,14 20,10 35,23 43,38 8,15 12,42 12,83l-1 108c0,31 2,54 4,68 3,15 9,31 17,47l-92 0c-2,-6 -5,-15 -9,-27 -1,-5 -2,-9 -3,-11 -16,16 -33,27 -51,35 -18,8 -37,12 -57,12 -36,0 -65,-10 -86,-29 -20,-20 -31,-45 -31,-75 0,-19 5,-37 15,-53 9,-15 22,-27 39,-35 17,-9 42,-16 74,-22 43,-8 73,-16 90,-23l0 -9c0,-18 -4,-31 -13,-39 -9,-7 -26,-11 -50,-11 -17,0 -30,3 -39,10 -9,6 -17,18 -22,34zm124 75c-12,4 -31,9 -56,15 -26,5 -43,11 -51,16 -12,8 -18,19 -18,32 0,14 5,25 15,34 9,10 21,14 36,14 17,0 33,-5 48,-16 12,-9 19,-19 22,-31 3,-8 4,-23 4,-45l0 -19zm479 168l-92 0 0 -179c0,-38 -2,-62 -6,-73 -4,-11 -11,-20 -20,-26 -9,-6 -20,-9 -32,-9 -17,0 -31,4 -44,13 -13,9 -22,20 -27,35 -4,14 -7,41 -7,80l0 159 -92 0 0 -351 86 0 0 52c30,-40 69,-59 116,-59 20,0 39,3 56,11 17,7 30,17 39,28 9,11 15,24 18,39 4,15 5,35 5,62l0 218zm140 -243l-84 -14c10,-35 26,-60 49,-77 23,-16 58,-24 103,-24 42,0 73,5 93,14 20,10 34,23 43,38 8,15 12,42 12,83l-1 108c0,31 1,54 4,68 3,15 8,31 17,47l-92 0c-3,-6 -6,-15 -9,-27 -2,-5 -3,-9 -4,-11 -15,16 -32,27 -50,35 -18,8 -37,12 -58,12 -36,0 -64,-10 -85,-29 -21,-20 -31,-45 -31,-75 0,-19 5,-37 14,-53 10,-15 23,-27 40,-35 17,-9 41,-16 74,-22 43,-8 73,-16 90,-23l0 -9c0,-18 -5,-31 -14,-39 -8,-7 -25,-11 -50,-11 -16,0 -29,3 -38,10 -10,6 -17,18 -23,34zm125 75c-12,4 -31,9 -57,15 -26,5 -42,11 -50,16 -12,8 -18,19 -18,32 0,14 4,25 14,34 10,10 22,14 37,14 17,0 33,-5 48,-16 11,-9 19,-19 22,-31 2,-8 4,-23 4,-45l0 -19zm151 191l106 12c2,13 6,21 12,26 9,7 23,10 42,10 24,0 42,-3 54,-11 9,-5 15,-12 19,-23 3,-8 4,-22 4,-43l1 -51c-28,38 -64,57 -106,57 -47,0 -84,-20 -112,-60 -22,-31 -32,-70 -32,-117 0,-59 14,-104 42,-135 28,-31 64,-46 106,-46 43,0 79,19 107,57l0 -50 87 0 0 315c0,41 -4,72 -10,93 -7,20 -17,36 -29,48 -12,12 -29,21 -50,27 -20,7 -46,10 -78,10 -59,0 -101,-10 -126,-30 -25,-21 -38,-47 -38,-78 0,-3 1,-7 1,-11zm83 -205c0,37 7,64 21,81 15,17 33,26 54,26 22,0 42,-9 57,-26 16,-18 24,-44 24,-79 0,-36 -8,-63 -23,-81 -15,-17 -34,-26 -57,-26 -22,0 -40,8 -55,26 -14,17 -21,43 -21,79zm519 71l92 16c-11,34 -30,60 -56,77 -26,18 -58,27 -96,27 -61,0 -106,-20 -136,-60 -23,-32 -34,-72 -34,-121 0,-58 15,-104 45,-137 31,-33 69,-49 116,-49 52,0 93,17 123,51 30,35 44,88 43,159l-232 0c1,28 8,49 23,64 14,16 32,23 53,23 14,0 26,-4 36,-12 10,-7 18,-20 23,-38zm5 -94c-1,-27 -7,-47 -21,-61 -13,-14 -29,-21 -48,-21 -20,0 -37,7 -50,22 -13,15 -19,35 -19,60l138 0zm234 205l-93 0 0 -351 86 0 0 50c15,-24 28,-39 40,-46 12,-8 25,-11 40,-11 21,0 42,6 61,17l-28 81c-16,-10 -31,-15 -44,-15 -13,0 -24,4 -33,11 -9,7 -16,20 -21,38 -6,19 -8,58 -8,118l0 108z"/>
  <path class="fil7" d="M5366 1821c77,-8 188,-84 188,-242 0,-188 -137,-314 -348,-314l-596 0 0 1150 598 0c250,0 379,-132 379,-322 0,-174 -115,-256 -221,-265l0 -7zm-472 -327l257 0c72,0 129,46 129,118 0,77 -55,129 -139,129l-247 0 0 -247zm0 693l0 -252 269 0c81,0 136,48 136,123 0,79 -50,129 -141,129l-264 0zm1710 -633l-274 0 0 68c-67,-60 -157,-94 -268,-94 -228,0 -421,185 -421,456 0,273 193,457 421,457 111,0 201,-34 268,-94l0 68 274 0 0 -861zm-485 654c-121,0 -208,-90 -208,-224 0,-132 87,-223 208,-223 111,0 211,91 211,223 0,134 -100,224 -211,224zm578 -18c29,177 202,251 405,251 226,0 391,-100 391,-290 0,-127 -76,-225 -239,-259l-202 -41c-55,-12 -65,-36 -65,-60 0,-31 24,-67 97,-67 84,0 136,48 145,101l250 -50c-34,-149 -177,-247 -391,-247 -218,0 -371,115 -371,292 0,135 91,221 251,250l175 35c63,12 86,34 86,63 0,38 -40,69 -112,69 -74,0 -141,-28 -153,-102l-267 55zm1044 -1046c-92,0 -158,72 -158,156 0,87 66,152 158,152 93,0 160,-65 160,-152 0,-84 -67,-156 -160,-156zm138 1271l0 -861 -275 0 0 861 275 0zm578 -214c-124,0 -206,-90 -206,-217 0,-125 82,-216 206,-216 87,0 157,48 182,153l257 -62c-48,-202 -230,-331 -439,-331 -258,0 -471,185 -471,456 0,273 213,457 471,457 214,0 396,-132 439,-336l-252 -55c-30,104 -100,151 -187,151z"/>
 </g>
</svg>
